<?xml version="1.0" encoding="iso-8859-1"?>
<!-- Generator: Adobe Illustrator 16.0.0, SVG Export Plug-In . SVG Version: 6.00 Build 0)  -->
<!DOCTYPE svg PUBLIC "-//W3C//DTD SVG 1.1//EN" "http://www.w3.org/Graphics/SVG/1.1/DTD/svg11.dtd">
<svg xmlns="http://www.w3.org/2000/svg" xmlns:xlink="http://www.w3.org/1999/xlink" version="1.1" id="Capa_1" x="0px" y="0px" width="512px" height="512px" viewBox="0 0 45.001 45.001" style="enable-background:new 0 0 45.001 45.001;" xml:space="preserve">
<g>
	<path d="M42.73,21.939c-0.525-8.071-6.996-14.56-15.197-15.313c0.066-0.182,0.109-0.375,0.109-0.58   c0-0.942-0.767-1.705-1.705-1.705c-0.941,0-1.707,0.763-1.707,1.705c0,0.205,0.043,0.398,0.106,0.58   C16.139,7.379,9.668,13.868,9.141,21.939h-2.27c0,1.139,0.924,2.063,2.064,2.063h1.851c-2.144,1.083-5.095,3.995-5.095,3.995   l6.771,6.841l2.418-1.446h13.78l9.389-9.39h4.889c1.14,0,2.063-0.924,2.063-2.063H42.73z M27.844,28.929c0,0-4.486,0-6.438,0   c-0.914,0-3.063-1.996-3.063-1.996s4.082,0,5.714,0c2.605,0,3.916-2.05,4.359-2.931h6.01C32.07,25.332,27.844,28.929,27.844,28.929   z M4.08,27.562l9.021,9.021l-4.08,4.078L0,31.64L4.08,27.562z" fill="#00aeaf"/>
</g>
<g>
</g>
<g>
</g>
<g>
</g>
<g>
</g>
<g>
</g>
<g>
</g>
<g>
</g>
<g>
</g>
<g>
</g>
<g>
</g>
<g>
</g>
<g>
</g>
<g>
</g>
<g>
</g>
<g>
</g>
</svg>
