<?xml version="1.0" encoding="UTF-8"?>
<!-- Generator: Adobe Illustrator 15.0.0, SVG Export Plug-In  -->
<!DOCTYPE svg PUBLIC "-//W3C//DTD SVG 1.1//EN" "http://www.w3.org/Graphics/SVG/1.1/DTD/svg11.dtd" [
	<!ENTITY ns_flows "http://ns.adobe.com/Flows/1.0/">
]>
<svg version="1.1" xmlns="http://www.w3.org/2000/svg" xmlns:xlink="http://www.w3.org/1999/xlink" xmlns:a="http://ns.adobe.com/AdobeSVGViewerExtensions/3.0/" x="0px" y="0px" width="80px" height="80px" viewBox="-5.409 -3 80 80" overflow="visible" enable-background="new -5.409 -3 80 80" xml:space="preserve">
<defs>
</defs>
<path fill="#3EBAC4" d="M65.959,58.843h-5.264V40.474c0-0.755-0.611-1.371-1.368-1.371h-6.767V24.833  c0-0.752-0.615-1.365-1.372-1.365h-7.161V12.94c0-0.757-0.616-1.373-1.373-1.373h-4.583c0.939-0.819,1.692-1.677,2.246-2.57  c1.365-2.177,1.302-4.016,1.009-5.18C40.762,1.569,38.824,0,36.643,0c-1.081,0-2.119,0.405-2.976,1.148  C32.811,0.405,31.774,0,30.679,0c-2.179,0-4.103,1.569-4.67,3.816c-0.298,1.166-0.368,3.004,1.001,5.181  c0.562,0.894,1.313,1.751,2.242,2.57H24.67c-0.757,0-1.366,0.616-1.366,1.373v10.528h-7.157c-0.759,0-1.373,0.613-1.373,1.365  v14.269H8.01c-0.756,0-1.363,0.616-1.363,1.371v18.369H1.372C0.616,58.843,0,59.459,0,60.216s0.616,1.374,1.372,1.374h12.262  c2.373,3.397,8.962,5.156,14.991,5.748v2.105l-6.761,5.1c-0.476,0.348-0.664,0.967-0.476,1.518C21.575,76.623,22.1,77,22.685,77  h21.966c0.585,0,1.106-0.377,1.304-0.939c0.174-0.551-0.006-1.17-0.482-1.518l-6.762-5.1v-2.105  c6.028-0.592,12.618-2.351,14.991-5.748h12.257c0.752,0,1.366-0.617,1.366-1.374S66.711,58.843,65.959,58.843 M26.044,14.306h15.251  v1.993H26.044V14.306z M35.444,28.518c-0.747,1.128-1.121,1.58-1.777,1.58c-0.662,0-1.038-0.452-1.787-1.58  c-0.517-0.779-1.167-1.742-2.177-2.314h7.916C36.622,26.776,35.958,27.739,35.444,28.518 M41.295,23.469H26.044v-4.426h15.251  V23.469z M17.515,29.442c0.125,0.17,0.263,0.371,0.414,0.598c0.79,1.186,1.867,2.802,4.061,2.802c2.187,0,3.271-1.617,4.061-2.802  c0.125-0.2,0.247-0.371,0.358-0.531c0.34-0.474,0.606-0.772,0.897-0.924c0.163-0.085,0.325-0.126,0.518-0.126  c0.668,0,1.038,0.459,1.786,1.581c0.787,1.186,1.862,2.802,4.059,2.802s3.267-1.617,4.058-2.802  c0.045-0.079,0.111-0.154,0.152-0.225c0.277-0.417,0.508-0.731,0.724-0.946c0.288-0.277,0.56-0.41,0.898-0.41  c0.668,0,1.044,0.459,1.796,1.581c0.776,1.186,1.864,2.802,4.061,2.802c2.181,0,3.261-1.617,4.058-2.802  c0.152-0.227,0.283-0.428,0.4-0.599v9.662H17.515V29.442z M57.011,41.838c-1.302,0.516-2.181,1.417-2.937,2.188  c-1.017,1.034-1.738,1.78-3.305,1.78c-1.568,0-2.289-0.746-3.306-1.78c-0.755-0.771-1.633-1.673-2.936-2.188H57.011z M47.129,28.518  c-0.747,1.128-1.117,1.58-1.773,1.58c-0.677,0-1.049-0.452-1.798-1.58c-0.518-0.779-1.158-1.742-2.179-2.314h7.937  C48.291,26.774,47.648,27.738,47.129,28.518 M25.942,26.204c-1.008,0.572-1.658,1.535-2.177,2.314  c-0.747,1.128-1.116,1.58-1.776,1.58c-0.667,0-1.034-0.452-1.783-1.58c-0.518-0.779-1.168-1.743-2.179-2.314H25.942z M22.81,41.838  c-1.31,0.516-2.195,1.418-2.953,2.188c-1.005,1.034-1.736,1.78-3.292,1.78c-1.567,0-2.288-0.746-3.299-1.78  c-0.752-0.771-1.642-1.673-2.956-2.188H22.81z M30.373,44.026c-0.756-0.771-1.644-1.673-2.951-2.188h12.489  c-1.32,0.516-2.196,1.418-2.952,2.188c-1.003,1.034-1.735,1.78-3.292,1.78c-0.603,0-1.076-0.111-1.494-0.308  c-0.447-0.212-0.826-0.513-1.218-0.89C30.765,44.429,30.572,44.234,30.373,44.026 M28.658,4.493  c0.258-1.015,1.113-1.757,2.021-1.757c0.701,0,1.323,0.432,1.814,1.238c0.249,0.408,0.697,0.664,1.173,0.665  c0.476,0,0.917-0.257,1.172-0.665c0.491-0.806,1.117-1.238,1.803-1.238c0.919,0,1.777,0.742,2.024,1.757  c0.444,1.687-0.681,4.33-5,6.876C29.351,8.823,28.23,6.18,28.658,4.493 M37.355,64.705c-0.006,0-0.012,0-0.018,0  c-0.759,0-1.374,0.602-1.374,1.354v4.061c0,0.444,0.217,0.838,0.551,1.105l4.032,3.031h-13.77l4.042-3.031  c0.343-0.269,0.54-0.661,0.54-1.105v-4.061c0-0.752-0.61-1.354-1.363-1.354c-0.005,0-0.012,0-0.018,0  c-5.614-0.41-9.841-1.681-12.242-3.115H49.6C47.198,63.024,42.959,64.295,37.355,64.705 M57.952,58.843H9.383V44.418  c0.725,0.302,1.267,0.846,1.928,1.518c1.128,1.159,2.538,2.604,5.254,2.604s4.119-1.444,5.252-2.604  c1.006-1.025,1.737-1.777,3.292-1.777c1.567,0,2.293,0.752,3.303,1.777c1.132,1.159,2.536,2.604,5.253,2.604  c2.716,0,4.119-1.444,5.251-2.604c1.017-1.025,1.737-1.777,3.294-1.777c1.564,0,2.299,0.752,3.294,1.777  c1.132,1.159,2.557,2.604,5.264,2.604s4.131-1.444,5.264-2.604c0.652-0.672,1.196-1.218,1.919-1.52V58.843z"/>
<path fill="#FFF4EA" d="M17.738,61.59c2.401,1.435,6.627,2.705,12.242,3.115c0.006,0,0.013,0,0.018,0  c0.752,0,1.363,0.602,1.363,1.354v4.061c0,0.444-0.197,0.837-0.54,1.105l-4.042,3.031h13.77l-4.032-3.031  c-0.334-0.269-0.551-0.661-0.551-1.105v-4.061c0-0.752,0.615-1.354,1.374-1.354c0.006,0,0.012,0,0.019,0  c5.603-0.41,9.842-1.681,12.243-3.115H17.738z"/>
<path fill="#FFF4EA" d="M47.464,44.025c1.018,1.035,1.737,1.781,3.306,1.781c1.567,0,2.287-0.746,3.304-1.781  c0.757-0.771,1.637-1.672,2.938-2.188H44.528C45.831,42.354,46.709,43.256,47.464,44.025"/>
<path fill="#FFF4EA" d="M13.267,44.025c1.012,1.035,1.733,1.781,3.299,1.781c1.556,0,2.287-0.746,3.292-1.781  c0.756-0.77,1.643-1.672,2.952-2.188H10.311C11.625,42.354,12.514,43.255,13.267,44.025"/>
<path fill="#FFF4EA" d="M32.173,45.498c0.417,0.197,0.892,0.309,1.493,0.309c1.558,0,2.29-0.746,3.293-1.781  c0.757-0.77,1.632-1.672,2.953-2.188H27.421c1.308,0.516,2.195,1.418,2.952,2.188c0.199,0.209,0.391,0.402,0.582,0.584  c0.023,0.021,0.056,0.037,0.077,0.057C31.457,44.967,31.827,45.248,32.173,45.498"/>
<path fill="#FFF4EA" d="M43.558,28.518c0.748,1.128,1.121,1.58,1.798,1.58c0.657,0,1.026-0.452,1.774-1.58  c0.519-0.779,1.161-1.745,2.186-2.313H41.38C42.399,26.775,43.04,27.74,43.558,28.518"/>
<path fill="#FDB9D0" d="M27.305,28.584c-0.291,0.152-0.557,0.451-0.897,0.924c0.254-0.26,0.507-0.525,0.769-0.793  C27.215,28.668,27.259,28.631,27.305,28.584"/>
<path fill="#FFF4EA" d="M20.206,28.518c0.748,1.128,1.118,1.58,1.783,1.58c0.659,0,1.028-0.452,1.776-1.58  c0.519-0.778,1.169-1.742,2.177-2.313h-7.915C19.036,26.774,19.688,27.74,20.206,28.518"/>
<path fill="#FDB9D0" d="M37.877,29.814c0.241-0.33,0.484-0.657,0.725-0.947C38.384,29.083,38.154,29.396,37.877,29.814"/>
<path fill="#FFF4EA" d="M31.88,28.518c0.749,1.128,1.125,1.58,1.787,1.58c0.656,0,1.03-0.452,1.777-1.58  c0.514-0.778,1.178-1.742,2.175-2.313h-7.916C30.713,26.776,31.364,27.74,31.88,28.518"/>
<rect x="26.044" y="14.306" fill="#FFF4EA" width="15.251" height="1.993"/>
</svg>